<svg width="756" height="356" viewBox="0 0 756 356" fill="none" xmlns="http://www.w3.org/2000/svg" role="img" aria-label="DriverHub">
  <defs>
    <linearGradient id="driverhub-blue" x1="130" y1="86" x2="276" y2="253" gradientUnits="userSpaceOnUse">
      <stop stop-color="#00B8FF"/>
      <stop offset="1" stop-color="#0A62E8"/>
    </linearGradient>
    <linearGradient id="driverhub-green" x1="74" y1="104" x2="183" y2="245" gradientUnits="userSpaceOnUse">
      <stop stop-color="#7CE7C5"/>
      <stop offset="1" stop-color="#B6F229"/>
    </linearGradient>
    <linearGradient id="driverhub-hub" x1="553" y1="116" x2="693" y2="189" gradientUnits="userSpaceOnUse">
      <stop stop-color="#C9F73D"/>
      <stop offset="1" stop-color="#73D719"/>
    </linearGradient>
    <filter id="soft-shadow" x="0" y="0" width="756" height="356" filterUnits="userSpaceOnUse" color-interpolation-filters="sRGB">
      <feDropShadow dx="0" dy="10" stdDeviation="12" flood-color="#000000" flood-opacity="0.45"/>
    </filter>
  </defs>

  <rect width="756" height="356" rx="0" fill="#010512"/>
  <g filter="url(#soft-shadow)">
    <path d="M137 83H197C239 83 269 113 269 168C269 222 239 254 196 254H117L137 83ZM175 125L164 212H194C214 212 227 195 227 169C227 142 214 125 194 125H175Z" fill="url(#driverhub-blue)"/>
    <path d="M185 124C209 124 228 143 228 168C228 193 209 213 185 213C160 213 141 193 141 168C141 143 160 124 185 124ZM185 136C167 136 153 150 153 168C153 186 167 201 185 201C202 201 216 186 216 168C216 150 202 136 185 136Z" fill="#051022"/>
    <path d="M185 130C206 130 222 147 222 168C222 189 206 207 185 207C164 207 147 189 147 168C147 147 164 130 185 130ZM185 142C171 142 160 154 160 168C160 183 171 195 185 195C199 195 210 183 210 168C210 154 199 142 185 142Z" fill="#0B85F5"/>
    <circle cx="185" cy="168" r="7" fill="#8BE64E"/>
    <path d="M157 165C172 156 197 156 213 165" stroke="#051022" stroke-width="10" stroke-linecap="round"/>
    <path d="M156 173L169 200" stroke="#051022" stroke-width="10" stroke-linecap="round"/>
    <path d="M214 173L201 200" stroke="#051022" stroke-width="10" stroke-linecap="round"/>

    <path d="M99 168H141M116 130L145 153M116 206L145 183" stroke="url(#driverhub-green)" stroke-width="8" stroke-linecap="round"/>
    <circle cx="75" cy="168" r="14" fill="#041021" stroke="url(#driverhub-green)" stroke-width="8"/>
    <circle cx="101" cy="117" r="12" fill="#041021" stroke="url(#driverhub-green)" stroke-width="8"/>
    <circle cx="101" cy="219" r="12" fill="#041021" stroke="url(#driverhub-green)" stroke-width="8"/>
  </g>

  <g filter="url(#soft-shadow)">
    <text x="300" y="184" fill="#FFFFFF" font-family="Arial, Helvetica, sans-serif" font-size="76" font-style="italic" font-weight="800" letter-spacing="-4">Driver</text>
    <text x="548" y="184" fill="url(#driverhub-hub)" font-family="Arial, Helvetica, sans-serif" font-size="76" font-style="italic" font-weight="800" letter-spacing="-4">Hub</text>
  </g>

  <g>
    <line x1="322" y1="205" x2="477" y2="205" stroke="#617189" stroke-width="1.5"/>
    <circle cx="489" cy="205" r="5" fill="#1599F7"/>
    <line x1="501" y1="205" x2="666" y2="205" stroke="#617189" stroke-width="1.5"/>
    <text x="322" y="236" fill="#F3F7FF" font-family="Arial, Helvetica, sans-serif" font-size="15" font-weight="700" letter-spacing="3.5">SERVICOS, BENEFICIOS E OPORTUNIDADES</text>
    <text x="363" y="255" fill="#1DA6FF" font-family="Arial, Helvetica, sans-serif" font-size="15" font-weight="800" letter-spacing="5">PARA QUEM MOVE O BRASIL.</text>
  </g>
</svg>
